<svg width="82" height="20" viewBox="0 0 82 20" fill="none" xmlns="http://www.w3.org/2000/svg">
<g clip-path="url(#clip0_26011_17193)">
<path d="M7.83904 -0.00536781C8.00808 -0.00527637 8.17712 -0.00526627 8.34616 -0.00530895C8.38266 -0.00531806 8.38266 -0.00531806 8.4199 -0.00532736C8.46938 -0.00534004 8.51886 -0.00535289 8.56833 -0.00536591C9.02899 -0.00547814 9.48965 -0.00535027 9.95031 -0.00513597C10.3431 -0.00495886 10.736 -0.00498977 11.1288 -0.00517239C11.5882 -0.00538589 12.0477 -0.00546733 12.5071 -0.00534634C12.5564 -0.00533371 12.6056 -0.00532125 12.6549 -0.00530895C12.6791 -0.00530283 12.7033 -0.00529672 12.7282 -0.00529042C12.8965 -0.00525659 13.0649 -0.00531307 13.2332 -0.00540725C13.439 -0.00551994 13.6449 -0.00548525 13.8508 -0.00527719C13.9552 -0.00517499 14.0597 -0.00512866 14.1641 -0.00526328C14.6019 -0.0057792 15.0388 0.00046294 15.4763 0.0184347C15.4965 0.0192575 15.5167 0.0200802 15.5375 0.0209279C16.3499 0.054696 17.1731 0.135979 17.9222 0.475714C17.9347 0.481326 17.9472 0.486938 17.96 0.49272C18.2297 0.61594 18.5272 0.776442 18.7528 0.971255C18.7528 0.984337 18.7528 0.997419 18.7528 1.0109C18.8017 1.03052 18.8017 1.03052 18.8516 1.05054C18.8516 1.06362 18.8516 1.07671 18.8516 1.09018C18.8647 1.09018 18.8777 1.09018 18.8912 1.09018C18.8912 1.10327 18.8912 1.11635 18.8912 1.12983C18.9073 1.13657 18.9073 1.13657 18.9237 1.14345C18.9842 1.17726 19.0324 1.22155 19.0828 1.26858C19.0931 1.27816 19.1034 1.28774 19.1141 1.29761C19.2101 1.38784 19.3048 1.4813 19.3856 1.58572C19.3856 1.59881 19.3856 1.61189 19.3856 1.62537C19.3986 1.62537 19.4117 1.62537 19.4251 1.62537C19.4596 1.66673 19.4914 1.70805 19.5228 1.75173C19.5324 1.76499 19.542 1.77825 19.5518 1.79192C19.6637 1.9489 19.7637 2.1127 19.8602 2.27948C19.8677 2.29236 19.8751 2.30524 19.8828 2.3185C20.0578 2.62358 20.1727 2.94929 20.2557 3.29038C20.2592 3.30469 20.2627 3.31899 20.2663 3.33373C20.3718 3.7776 20.425 4.23439 20.448 4.68955C20.4492 4.71236 20.4504 4.73517 20.4516 4.75867C20.4932 5.58465 20.4819 6.4131 20.4813 7.23984C20.4811 7.41636 20.4811 7.59288 20.4812 7.7694C20.4812 7.79483 20.4812 7.82026 20.4812 7.84646C20.4812 7.89818 20.4812 7.94989 20.4813 8.00161C20.4814 8.46928 20.4812 8.93696 20.4809 9.40463C20.4807 9.82838 20.4807 10.2521 20.481 10.6759C20.4813 11.1558 20.4814 11.6358 20.4812 12.1158C20.4812 12.1673 20.4812 12.2187 20.4812 12.2702C20.4812 12.2956 20.4811 12.3209 20.4811 12.3469C20.4811 12.5226 20.4812 12.6982 20.4813 12.8739C20.4826 14.6891 20.4826 14.6891 20.448 15.3501C20.4469 15.3712 20.4459 15.3924 20.4448 15.4141C20.4222 15.8401 20.3696 16.2689 20.2681 16.6836C20.2621 16.7084 20.2562 16.7332 20.2501 16.7587C20.2042 16.9456 20.1503 17.1261 20.0777 17.3043C20.0702 17.3233 20.0702 17.3233 20.0626 17.3427C19.9714 17.5735 19.8513 17.7867 19.7218 17.998C19.7105 18.0165 19.7105 18.0165 19.699 18.0354C19.6814 18.0633 19.6622 18.0903 19.6427 18.1169C19.6296 18.1169 19.6166 18.1169 19.6031 18.1169C19.597 18.1325 19.5909 18.148 19.5846 18.164C19.5636 18.2161 19.5636 18.2161 19.5438 18.2557C19.5307 18.2557 19.5177 18.2557 19.5042 18.2557C19.5002 18.2693 19.4961 18.2829 19.492 18.297C19.4556 18.3741 19.4036 18.4265 19.3448 18.4874C19.2675 18.5633 19.2675 18.5633 19.2076 18.6521C19.1946 18.6521 19.1815 18.6521 19.1681 18.6521C19.1636 18.6633 19.1591 18.6744 19.1545 18.6859C19.1212 18.7442 19.0796 18.781 19.0296 18.8256C19.0121 18.8414 18.9945 18.8572 18.9765 18.8736C18.9307 18.9098 18.9307 18.9098 18.8912 18.9098C18.8912 18.9229 18.8912 18.936 18.8912 18.9495C18.8646 18.974 18.8646 18.974 18.8277 19.001C18.8079 19.0156 18.8079 19.0156 18.7877 19.0304C18.7737 19.0405 18.7597 19.0506 18.7454 19.0609C18.7315 19.0712 18.7177 19.0814 18.7035 19.0919C18.5998 19.1675 18.5998 19.1675 18.555 19.1675C18.555 19.1806 18.555 19.1937 18.555 19.2071C18.5225 19.2327 18.5225 19.2327 18.4796 19.2592C18.4656 19.268 18.4516 19.2768 18.4372 19.286C18.3968 19.3062 18.3968 19.3062 18.3375 19.3062C18.3375 19.3193 18.3375 19.3324 18.3375 19.3459C18.0872 19.4857 17.8402 19.6158 17.5662 19.7027C17.5517 19.7073 17.5372 19.712 17.5222 19.7168C17.1321 19.8404 16.7269 19.9159 16.3204 19.9604C16.3056 19.962 16.2908 19.9636 16.2756 19.9653C15.9917 19.9956 15.7114 20.0057 15.4261 20.0052C15.3815 20.0052 15.3369 20.0053 15.2923 20.0054C15.171 20.0056 15.0497 20.0056 14.9284 20.0055C14.8107 20.0054 14.6929 20.0056 14.5751 20.0057C14.3048 20.006 14.0346 20.006 13.7643 20.006C13.5554 20.006 13.3466 20.006 13.1377 20.0061C13.1076 20.0061 13.0775 20.0061 13.0474 20.0061C13.002 20.0061 12.9567 20.0061 12.9113 20.0062C12.4899 20.0063 12.0685 20.0064 11.6472 20.0063C11.6313 20.0063 11.6154 20.0063 11.5991 20.0063C11.5188 20.0063 11.4384 20.0063 11.3581 20.0063C11.3421 20.0063 11.3262 20.0063 11.3097 20.0063C11.2775 20.0063 11.2452 20.0062 11.2129 20.0062C10.7112 20.0061 10.2094 20.0063 9.70765 20.0067C9.14269 20.0071 8.57773 20.0073 8.01277 20.0072C7.95241 20.0072 7.89204 20.0072 7.83168 20.0072C7.80939 20.0072 7.80939 20.0072 7.78665 20.0072C7.56334 20.0072 7.34004 20.0073 7.11674 20.0075C6.86245 20.0077 6.60816 20.0078 6.35387 20.0075C6.22436 20.0074 6.09485 20.0074 5.96533 20.0076C4.9784 20.0093 4.9784 20.0093 4.51449 19.9405C4.48468 19.9366 4.45486 19.9328 4.42503 19.929C4.36116 19.9209 4.29756 19.9119 4.23392 19.9021C4.21187 19.8988 4.18981 19.8954 4.16708 19.8919C3.61714 19.8055 3.10812 19.6241 2.6247 19.3484C2.60807 19.3389 2.59144 19.3295 2.57431 19.3197C2.5591 19.3108 2.54389 19.3019 2.52822 19.2928C2.51462 19.2848 2.50102 19.2769 2.487 19.2688C2.47738 19.2615 2.46776 19.2543 2.45785 19.2468C2.45785 19.2337 2.45785 19.2206 2.45785 19.2071C2.43712 19.2001 2.43712 19.2001 2.41598 19.1929C2.34839 19.1628 2.29636 19.1236 2.23785 19.0783C2.18 19.0338 2.12303 18.99 2.06234 18.9495C2.06234 18.9364 2.06234 18.9233 2.06234 18.9098C2.04929 18.9098 2.03624 18.9098 2.02279 18.9098C2.02279 18.8967 2.02279 18.8836 2.02279 18.8702C2.01055 18.864 1.99832 18.8579 1.98571 18.8516C1.95852 18.838 1.93133 18.8243 1.90414 18.8107C1.90414 18.7976 1.90414 18.7845 1.90414 18.7711C1.89108 18.7711 1.87803 18.7711 1.86459 18.7711C1.83122 18.7318 1.79827 18.6921 1.76571 18.6521C1.75266 18.6456 1.7396 18.639 1.72616 18.6323C1.72616 18.6192 1.72616 18.6061 1.72616 18.5927C1.71311 18.5927 1.70005 18.5927 1.68661 18.5927C1.62728 18.524 1.62728 18.524 1.62728 18.4737C1.61423 18.4737 1.60118 18.4737 1.58773 18.4737C1.50863 18.3851 1.50863 18.3851 1.50863 18.335C1.49558 18.335 1.48252 18.335 1.46908 18.335C1.46255 18.3088 1.45603 18.2827 1.4493 18.2557C1.43625 18.2557 1.4232 18.2557 1.40975 18.2557C1.38146 18.2188 1.35495 18.1806 1.32941 18.1417C1.31532 18.1206 1.30122 18.0994 1.2867 18.0776C1.25776 18.0284 1.24052 17.9941 1.23177 17.9385C1.21872 17.9385 1.20567 17.9385 1.19222 17.9385C1.15709 17.8754 1.12212 17.8122 1.08717 17.749C1.07729 17.7313 1.06741 17.7135 1.05723 17.6952C1.00439 17.5995 0.956035 17.5049 0.915367 17.4034C0.906266 17.3811 0.897166 17.3588 0.887789 17.3358C0.684812 16.8117 0.588244 16.2573 0.539634 15.6987C0.538013 15.6808 0.536393 15.663 0.534722 15.6445C0.492057 15.1581 0.494381 14.672 0.494913 14.1841C0.495004 14.0609 0.494864 13.9378 0.494756 13.8146C0.494591 13.588 0.494604 13.3614 0.494713 13.1348C0.494813 12.9254 0.494838 12.7159 0.494791 12.5065C0.494787 12.4855 0.494786 12.4855 0.494782 12.4642C0.494769 12.4074 0.494757 12.3507 0.494744 12.294C0.494624 11.7633 0.494732 11.2327 0.494946 10.7021C0.495134 10.2321 0.495116 9.76218 0.494927 9.29222C0.494715 8.76248 0.494632 8.23274 0.494754 7.703C0.494767 7.64638 0.494779 7.58976 0.494791 7.53315C0.494795 7.51921 0.494797 7.50527 0.4948 7.49091C0.494845 7.28175 0.494793 7.07259 0.494693 6.86343C0.494579 6.62527 0.494613 6.38711 0.494823 6.14895C0.494926 6.02771 0.494969 5.90648 0.494837 5.78525C0.494244 5.19314 0.496079 4.60403 0.577949 4.01635C0.581433 3.99061 0.584918 3.96488 0.588508 3.93836C0.598252 3.86768 0.608362 3.79706 0.618736 3.72646C0.6211 3.71018 0.623465 3.69391 0.625901 3.67715C0.710593 3.11491 0.909553 2.59146 1.19222 2.10109C1.20527 2.10109 1.21833 2.10109 1.23177 2.10109C1.23603 2.08461 1.24029 2.06812 1.24467 2.05114C1.27783 1.9653 1.32531 1.90202 1.38132 1.82978C1.39186 1.81598 1.4024 1.80218 1.41326 1.78797C1.44484 1.74681 1.47668 1.70588 1.50863 1.66501C1.51783 1.65316 1.52704 1.64132 1.53652 1.62911C1.6405 1.49588 1.6405 1.49588 1.68661 1.44697C1.69966 1.44697 1.71271 1.44697 1.72616 1.44697C1.72616 1.43389 1.72616 1.42081 1.72616 1.40733C1.73921 1.40733 1.75226 1.40733 1.76571 1.40733C1.77366 1.38955 1.77366 1.38955 1.78178 1.3714C1.80524 1.32807 1.82693 1.30003 1.86459 1.26858C1.87764 1.26858 1.89069 1.26858 1.90414 1.26858C1.90414 1.2555 1.90414 1.24241 1.90414 1.22894C1.91719 1.22894 1.93024 1.22894 1.94369 1.22894C1.94369 1.21585 1.94369 1.20277 1.94369 1.18929C1.95674 1.18929 1.96979 1.18929 1.98324 1.18929C1.98324 1.17621 1.98324 1.16313 1.98324 1.14965C1.99547 1.14801 2.00771 1.14638 2.02032 1.14469C2.06579 1.13416 2.06579 1.13416 2.08088 1.09142C2.10189 1.05054 2.10189 1.05054 2.1538 1.02576C2.1693 1.02086 2.1848 1.01595 2.20077 1.0109C2.20077 0.997815 2.20077 0.984733 2.20077 0.971255C2.23062 0.946807 2.23062 0.946807 2.27238 0.919532C2.28763 0.909465 2.30289 0.899398 2.31861 0.889026C2.33478 0.87855 2.35096 0.868074 2.36762 0.85728C2.38311 0.847111 2.39859 0.836941 2.41455 0.826464C2.44611 0.805741 2.47772 0.785094 2.50937 0.764521C2.54044 0.744101 2.5713 0.723358 2.60191 0.702269C2.70255 0.633033 2.80432 0.576372 2.91515 0.525268C2.93149 0.517661 2.94783 0.510053 2.96466 0.502214C3.73839 0.145298 4.57908 0.051024 5.42291 0.0176689C5.44378 0.0168379 5.46465 0.0160069 5.48615 0.0151507C6.26985 -0.0145429 7.05494 -0.00580317 7.83904 -0.00536781Z" fill="black"/>
<path d="M11.0407 3.56511C11.0568 3.56499 11.0729 3.56488 11.0894 3.56476C11.1158 3.56473 11.1158 3.56473 11.1427 3.5647C11.1612 3.5646 11.1798 3.5645 11.1989 3.5644C11.2604 3.56411 11.3219 3.56397 11.3834 3.56386C11.426 3.56375 11.4687 3.56364 11.5114 3.56352C11.6009 3.56331 11.6905 3.5632 11.78 3.56313C11.8948 3.56302 12.0095 3.56254 12.1243 3.56198C12.2125 3.56161 12.3006 3.56151 12.3888 3.56148C12.4311 3.56142 12.4734 3.56126 12.5158 3.561C12.5749 3.56066 12.6341 3.5607 12.6933 3.56083C12.7108 3.56064 12.7282 3.56046 12.7463 3.56027C12.8404 3.56091 12.9018 3.56662 12.9785 3.62736C13.0199 3.67157 13.0373 3.70411 13.0387 3.76538C13.0236 3.9478 12.9829 4.1251 12.9438 4.30357C12.9316 4.35929 12.9196 4.41505 12.9076 4.47082C12.8716 4.63736 12.8354 4.80342 12.7905 4.96784C12.7802 5.01776 12.779 5.06313 12.7808 5.11398C12.7919 5.11745 12.803 5.12093 12.8145 5.12451C13.0455 5.19733 13.2591 5.27695 13.4729 5.39148C13.4994 5.40462 13.5259 5.41765 13.5525 5.43058C13.7107 5.50758 13.8615 5.58891 14.0068 5.6888C14.0281 5.70321 14.0494 5.71762 14.0713 5.73247C14.2521 5.85718 14.4179 5.99686 14.5803 6.1447C14.6035 6.16578 14.6035 6.16578 14.6272 6.18729C14.7544 6.30887 14.9554 6.50215 14.9635 6.68484C14.9644 6.69966 14.9654 6.71448 14.9664 6.72975C14.9408 6.85147 14.8241 6.92877 14.7299 6.99951C14.6297 7.07646 14.5323 7.1557 14.437 7.2386C14.344 7.31924 14.2501 7.39789 14.1536 7.47422C14.1012 7.51598 14.0497 7.55876 13.9982 7.60159C13.6584 7.8791 13.6584 7.8791 13.5322 7.86918C13.4256 7.8095 13.3524 7.72799 13.2714 7.63751C12.7602 7.08039 12.0757 6.787 11.3372 6.67988C11.3138 6.67618 11.2905 6.67247 11.2665 6.66866C11.1363 6.65293 11.0046 6.65525 10.8737 6.65511C10.8596 6.65508 10.8454 6.65505 10.8309 6.65503C10.6181 6.65511 10.4171 6.66689 10.21 6.71953C10.1902 6.72405 10.1704 6.72857 10.15 6.73323C9.81045 6.81689 9.45912 6.98601 9.26321 7.28568C9.12892 7.51158 9.07621 7.76312 9.13514 8.02535C9.24092 8.3149 9.47595 8.45893 9.74104 8.58512C10.2204 8.80356 10.7452 8.91649 11.2568 9.03122C11.2699 9.03415 11.283 9.03709 11.2964 9.04011C11.3351 9.04879 11.3738 9.05746 11.4125 9.06614C12.3678 9.28066 13.415 9.64239 13.9914 10.4907C14.1081 10.6754 14.1949 10.8603 14.2577 11.0691C14.2637 11.089 14.2637 11.089 14.2699 11.1092C14.3343 11.334 14.3494 11.5529 14.3482 11.7854C14.348 11.8321 14.3482 11.8789 14.3484 11.9256C14.3492 12.7123 14.0318 13.4295 13.4927 13.9941C13.4713 14.0173 13.4713 14.0173 13.4496 14.0411C13.1064 14.4029 12.6611 14.6507 12.2073 14.8464C12.1836 14.8567 12.16 14.867 12.1356 14.8776C11.6894 15.0581 11.208 15.1359 10.7331 15.1948C10.7003 15.1989 10.7003 15.1989 10.6669 15.2031C10.6134 15.2097 10.56 15.2164 10.5066 15.223C10.5038 15.2369 10.5011 15.2509 10.4982 15.2652C10.4722 15.3968 10.4457 15.5283 10.4189 15.6598C10.4051 15.7274 10.3915 15.795 10.3781 15.8626C10.3628 15.9405 10.3468 16.0183 10.3309 16.096C10.3238 16.1323 10.3238 16.1323 10.3167 16.1693C10.2734 16.3755 10.2734 16.3755 10.1704 16.4519C10.1639 16.4585 10.1574 16.465 10.1506 16.4718C10.0893 16.4742 10.0283 16.4753 9.96693 16.4756C9.94763 16.4757 9.92834 16.4759 9.90846 16.4761C9.8443 16.4766 9.78013 16.4769 9.71596 16.4772C9.68316 16.4773 9.68316 16.4773 9.64969 16.4775C9.5339 16.478 9.41811 16.4784 9.30232 16.4787C9.18264 16.479 9.06297 16.4799 8.94329 16.4809C8.85136 16.4816 8.75943 16.4818 8.66749 16.4819C8.62338 16.4821 8.57927 16.4824 8.53516 16.4828C8.47337 16.4835 8.41161 16.4835 8.34982 16.4833C8.3225 16.4838 8.3225 16.4838 8.29462 16.4843C8.20851 16.4835 8.15136 16.4793 8.08295 16.424C8.01639 16.3532 8.01043 16.3168 8.01176 16.22C8.01727 16.1398 8.03591 16.0631 8.05468 15.985C8.05883 15.9672 8.06298 15.9493 8.06727 15.931C8.07608 15.8933 8.08497 15.8556 8.09395 15.8179C8.10738 15.7616 8.12054 15.7051 8.13366 15.6487C8.18739 15.4192 8.24665 15.1918 8.31152 14.9653C8.29123 14.9629 8.27094 14.9604 8.25003 14.9579C8.13059 14.9386 8.02089 14.8961 7.90736 14.8551C7.88881 14.8484 7.88881 14.8484 7.86989 14.8416C7.68657 14.7754 7.51061 14.7026 7.33973 14.6087C7.30006 14.5871 7.25996 14.5666 7.21971 14.5462C6.92914 14.3978 6.66789 14.2171 6.41309 14.0139C6.40245 14.0055 6.39182 13.9971 6.38086 13.9885C6.24364 13.8803 6.24364 13.8803 6.19556 13.8355C6.19556 13.8224 6.19556 13.8093 6.19556 13.7958C6.18498 13.7918 6.1744 13.7878 6.1635 13.7837C6.09664 13.7446 6.04837 13.6902 5.99657 13.6335C5.9854 13.6213 5.97422 13.6091 5.96271 13.5966C5.8832 13.5082 5.8076 13.4173 5.73578 13.3226C5.72197 13.305 5.72197 13.305 5.70789 13.287C5.64334 13.199 5.62251 13.1327 5.62207 13.0228C5.65812 12.9011 5.74931 12.8425 5.84702 12.7701C5.86306 12.7579 5.87911 12.7457 5.89564 12.7331C5.92795 12.7086 5.96032 12.6842 5.99276 12.6599C6.0509 12.6162 6.1084 12.5718 6.16589 12.5273C6.18611 12.5117 6.20632 12.4961 6.22715 12.4801C6.3087 12.4172 6.38995 12.3539 6.47118 12.2906C6.48629 12.2789 6.5014 12.2671 6.51697 12.255C6.58822 12.1995 6.65928 12.1437 6.7298 12.0872C6.74827 12.0725 6.74827 12.0725 6.76712 12.0575C6.78972 12.0394 6.81227 12.0212 6.83474 12.003C7.01179 11.8616 7.01179 11.8616 7.11032 11.8464C7.12251 11.8483 7.13469 11.8502 7.14725 11.8521C7.15953 11.8535 7.17182 11.8549 7.18448 11.8563C7.27779 11.8961 7.3394 11.9909 7.40062 12.0689C8.00655 12.816 8.82751 13.304 9.79213 13.4099C10.4672 13.4695 11.1984 13.4073 11.7512 12.9757C11.9552 12.7983 12.1446 12.5463 12.1717 12.268C12.1737 12.2234 12.1742 12.1791 12.1739 12.1345C12.1738 12.1188 12.1737 12.103 12.1736 12.0868C12.1691 11.8705 12.1071 11.7028 11.9589 11.5424C11.8632 11.4539 11.7499 11.3953 11.6338 11.338C11.6151 11.3286 11.5963 11.3193 11.577 11.3096C11.166 11.1193 10.7138 11.034 10.2742 10.9373C9.95118 10.8661 9.63421 10.7885 9.32007 10.6838C9.30211 10.6779 9.28414 10.672 9.26564 10.6659C9.15108 10.6279 9.03758 10.5875 8.92456 10.5451C8.91058 10.5399 8.8966 10.5348 8.88219 10.5294C8.42073 10.3569 8.00654 10.099 7.63916 9.77205C7.61974 9.75511 7.61974 9.75511 7.59992 9.73783C7.23444 9.39767 6.9981 8.86106 6.96927 8.36681C6.95871 8.06831 6.949 7.7671 7.00635 7.47275C7.00974 7.45425 7.01313 7.43575 7.01662 7.41669C7.13257 6.87981 7.4216 6.41676 7.79736 6.02577C7.8096 6.01225 7.82184 5.99874 7.83444 5.98481C8.18647 5.60754 8.68435 5.34776 9.16191 5.16848C9.1908 5.15761 9.21959 5.14645 9.2483 5.13512C9.40064 5.07668 9.55544 5.0386 9.71434 5.00248C9.73967 4.99655 9.76499 4.99062 9.79109 4.98452C10.0436 4.92624 10.2878 4.88956 10.5461 4.87612C10.5511 4.85337 10.5561 4.83062 10.5612 4.80718C10.5801 4.72095 10.599 4.63472 10.6178 4.5485C10.6259 4.51152 10.634 4.47454 10.6421 4.43756C10.646 4.41978 10.6499 4.402 10.6539 4.38367C10.6578 4.3659 10.6617 4.34812 10.6657 4.3298C10.6735 4.29391 10.6815 4.25804 10.6894 4.22217C10.7087 4.13535 10.7272 4.04851 10.7442 3.96121C10.749 3.93701 10.749 3.93701 10.754 3.91233C10.76 3.88233 10.7658 3.85227 10.7712 3.82215C10.7927 3.71713 10.8281 3.66185 10.9021 3.58771C10.9554 3.56992 10.9861 3.56534 11.0407 3.56511Z" fill="#FEFEFE"/>
<path d="M39.4368 4.8302C39.503 4.83027 39.5691 4.82979 39.6352 4.8293C39.6775 4.82925 39.7198 4.82924 39.7621 4.82926C39.7817 4.82908 39.8014 4.82889 39.8216 4.8287C39.9433 4.82953 40.01 4.8459 40.1054 4.92442C40.1581 4.99043 40.1525 5.06959 40.1531 5.15096C40.1533 5.17438 40.1534 5.1978 40.1536 5.22193C40.1538 5.25978 40.1538 5.25978 40.1539 5.2984C40.154 5.3244 40.1541 5.3504 40.1542 5.37719C40.1544 5.43221 40.1546 5.48723 40.1546 5.54225C40.1547 5.61254 40.1552 5.68283 40.1558 5.75312C40.1562 5.82041 40.1563 5.88769 40.1564 5.95499C40.1566 5.98014 40.1569 6.00529 40.1571 6.0312C40.157 6.05475 40.157 6.0783 40.1569 6.10255C40.157 6.13349 40.157 6.13349 40.1571 6.16505C40.1466 6.25081 40.1151 6.31735 40.0553 6.37956C39.9961 6.41035 39.9502 6.41001 39.8837 6.41042C39.8584 6.41085 39.8332 6.41129 39.8071 6.41173C39.7805 6.41195 39.7538 6.41213 39.7272 6.41228C39.3013 6.40916 39.3013 6.40916 38.9315 6.59315C38.904 6.6204 38.904 6.6204 38.8645 6.6204C38.8596 6.63389 38.8547 6.64739 38.8496 6.66129C38.8249 6.71951 38.8249 6.71951 38.7854 6.78765C38.6345 7.04858 38.6772 7.38677 38.6667 7.67095C39.613 7.67095 40.5592 7.67095 41.5342 7.67095C41.531 7.03702 41.531 7.03702 41.527 6.40309C41.5267 6.28032 41.5267 6.28032 41.5266 6.2228C41.5265 6.18274 41.5262 6.14267 41.5258 6.1026C41.5252 6.04181 41.5251 5.98104 41.5252 5.92025C41.5249 5.90248 41.5246 5.88471 41.5243 5.8664C41.525 5.75816 41.5389 5.69375 41.6133 5.6095C41.6927 5.54511 41.7574 5.54253 41.8579 5.54234C41.8794 5.54219 41.8794 5.54219 41.9013 5.54203C41.9485 5.54177 41.9956 5.54194 42.0428 5.54214C42.0756 5.5421 42.1085 5.54204 42.1414 5.54197C42.2102 5.54188 42.279 5.54201 42.3478 5.54228C42.4359 5.54262 42.524 5.54243 42.6122 5.54207C42.68 5.54186 42.7479 5.54193 42.8157 5.54208C42.8482 5.54212 42.8807 5.54207 42.9132 5.54193C42.9586 5.54178 43.004 5.54201 43.0495 5.54234C43.0882 5.54241 43.0882 5.54241 43.1278 5.54249C43.2172 5.55249 43.2634 5.58221 43.3296 5.64093C43.3681 5.71803 43.3612 5.79476 43.3602 5.87975C43.3602 5.89909 43.3602 5.91843 43.3603 5.93837C43.3602 6.00229 43.3597 6.06621 43.3593 6.13013C43.3592 6.17446 43.3591 6.21878 43.359 6.26311C43.3588 6.37977 43.3582 6.49643 43.3576 6.61309C43.357 6.73213 43.3567 6.85118 43.3564 6.97022C43.3558 7.2038 43.3547 7.43737 43.3535 7.67095C43.3697 7.67077 43.386 7.6706 43.4027 7.67042C43.5563 7.66882 43.7099 7.66762 43.8636 7.66684C43.9425 7.66643 44.0215 7.66587 44.1004 7.66497C44.1767 7.6641 44.253 7.66363 44.3293 7.66343C44.3583 7.66328 44.3873 7.663 44.4163 7.66257C44.7101 7.65839 44.7101 7.65839 44.8366 7.75024C44.8756 7.82497 44.8813 7.88824 44.8816 7.97183C44.8818 7.99611 44.882 8.02039 44.8822 8.0454C44.8822 8.08449 44.8822 8.08449 44.8821 8.12437C44.8822 8.15154 44.8823 8.17872 44.8824 8.20589C44.8825 8.26274 44.8825 8.31959 44.8824 8.37644C44.8823 8.44915 44.8827 8.52186 44.8831 8.59458C44.8834 8.65066 44.8834 8.70674 44.8834 8.76282C44.8834 8.80262 44.8837 8.84242 44.8839 8.88223C44.8837 8.91864 44.8837 8.91864 44.8836 8.95579C44.8836 8.9771 44.8836 8.99842 44.8836 9.02038C44.8749 9.08825 44.8587 9.12347 44.8169 9.17739C44.7373 9.23672 44.6797 9.24415 44.5815 9.24361C44.5615 9.24362 44.5615 9.24362 44.5411 9.24363C44.4974 9.24359 44.4536 9.24313 44.4099 9.24266C44.3794 9.24255 44.3489 9.24247 44.3185 9.24241C44.2386 9.24218 44.1586 9.2416 44.0787 9.24094C43.997 9.24033 43.9154 9.24006 43.8337 9.23976C43.6736 9.23912 43.5136 9.23811 43.3535 9.23686C43.3547 9.71535 43.3562 10.1938 43.3582 10.6723C43.359 10.8945 43.3598 11.1167 43.3603 11.3389C43.3608 11.5327 43.3615 11.7264 43.3624 11.9202C43.3628 12.0227 43.3632 12.1252 43.3633 12.2277C43.3635 12.3244 43.3638 12.421 43.3645 12.5177C43.3646 12.553 43.3647 12.5883 43.3647 12.6236C43.3595 13.0055 43.3595 13.0055 43.5119 13.345C43.6155 13.4362 43.7228 13.4945 43.8602 13.5146C43.8753 13.517 43.8903 13.5193 43.9058 13.5218C44.1297 13.5509 44.358 13.5422 44.5832 13.5394C44.5995 13.5393 44.6157 13.5391 44.6324 13.5389C44.6633 13.5385 44.6941 13.538 44.725 13.5374C44.7877 13.5366 44.8359 13.5379 44.896 13.558C44.896 13.571 44.896 13.5841 44.896 13.5976C44.909 13.5976 44.9221 13.5976 44.9355 13.5976C44.9825 13.6813 45.0023 13.7415 45.0025 13.8373C45.0027 13.8607 45.0029 13.8842 45.0031 13.9083C45.0029 13.9458 45.0029 13.9458 45.0027 13.9841C45.0028 14.0101 45.0028 14.036 45.0029 14.0628C45.003 14.1175 45.0029 14.1723 45.0026 14.2271C45.0022 14.2971 45.0024 14.3671 45.0028 14.437C45.0031 14.5041 45.0029 14.5712 45.0027 14.6382C45.0028 14.6633 45.003 14.6883 45.0031 14.7141C45.0029 14.7375 45.0027 14.7609 45.0025 14.785C45.0025 14.8056 45.0024 14.8261 45.0024 14.8472C44.9913 14.9333 44.9609 15.0006 44.8979 15.0605C44.4069 15.3407 43.288 15.2083 42.7608 15.0682C42.3445 14.9493 41.991 14.7344 41.7715 14.3508C41.5485 13.9199 41.5278 13.4518 41.5297 12.9768C41.5297 12.9357 41.5297 12.8947 41.5296 12.8536C41.5296 12.7433 41.5299 12.633 41.5301 12.5227C41.5304 12.407 41.5304 12.2913 41.5305 12.1755C41.5306 11.957 41.5309 11.7384 41.5313 11.5198C41.5318 11.224 41.532 10.9283 41.5323 10.6325C41.5326 10.1673 41.5334 9.70208 41.5342 9.23686C40.5879 9.23686 39.6416 9.23686 38.6667 9.23686C38.6674 9.64161 38.6681 10.0464 38.6688 10.4634C38.6691 10.7193 38.6694 10.9752 38.6696 11.2311C38.6697 11.3655 38.6699 11.4999 38.67 11.6343C38.67 11.6512 38.67 11.668 38.67 11.6854C38.6703 11.9574 38.6708 12.2294 38.6713 12.5013C38.6719 12.7804 38.6722 13.0595 38.6723 13.3387C38.6724 13.5109 38.6726 13.6831 38.6731 13.8554C38.6734 13.9735 38.6735 14.0916 38.6735 14.2097C38.6734 14.2778 38.6735 14.3459 38.6738 14.4141C38.6741 14.488 38.674 14.5619 38.6739 14.6358C38.674 14.6573 38.6742 14.6788 38.6744 14.7009C38.6737 14.8177 38.665 14.9025 38.6074 15.0049C38.52 15.0826 38.4542 15.0942 38.3392 15.0945C38.3175 15.0947 38.3175 15.0947 38.2953 15.0949C38.2477 15.0953 38.2001 15.095 38.1526 15.0948C38.1193 15.0948 38.0861 15.0949 38.0528 15.095C37.9833 15.0951 37.9137 15.0949 37.8442 15.0946C37.7552 15.0941 37.6663 15.0944 37.5773 15.0948C37.5087 15.0951 37.4401 15.095 37.3715 15.0948C37.3387 15.0948 37.3059 15.0949 37.2731 15.095C37.2272 15.0952 37.1813 15.0949 37.1354 15.0945C37.0962 15.0944 37.0962 15.0944 37.0563 15.0943C36.9722 15.0823 36.9313 15.0604 36.8672 15.0049C36.7922 14.8942 36.7997 14.786 36.8007 14.6572C36.8007 14.6341 36.8006 14.6109 36.8005 14.587C36.8005 14.5229 36.8007 14.4588 36.801 14.3946C36.8012 14.3254 36.8011 14.2561 36.8011 14.1869C36.801 14.067 36.8012 13.9471 36.8016 13.8272C36.802 13.6539 36.8022 13.4806 36.8023 13.3072C36.8024 13.026 36.8028 12.7447 36.8034 12.4635C36.8039 12.1903 36.8043 11.9171 36.8046 11.6439C36.8046 11.6271 36.8046 11.6102 36.8046 11.5929C36.8047 11.5084 36.8048 11.4239 36.8049 11.3394C36.8055 10.6385 36.8065 9.9377 36.8078 9.23686C36.7832 9.23717 36.7586 9.23748 36.7332 9.2378C36.6416 9.23888 36.55 9.23956 36.4584 9.24012C36.4188 9.24042 36.3792 9.24083 36.3396 9.24134C36.2826 9.24206 36.2256 9.2424 36.1686 9.24266C36.151 9.24297 36.1333 9.24328 36.1151 9.24359C36.0194 9.24362 35.9561 9.23964 35.8784 9.17739C35.7707 9.06673 35.7885 8.93735 35.7902 8.79017C35.7902 8.76418 35.7902 8.73818 35.7902 8.7114C35.7903 8.65653 35.7906 8.60168 35.7912 8.54681C35.7918 8.47665 35.792 8.4065 35.7919 8.33634C35.792 8.26916 35.7923 8.20199 35.7926 8.13482C35.7927 8.10969 35.7927 8.08456 35.7928 8.05867C35.793 8.03525 35.7933 8.01183 35.7935 7.9877C35.7937 7.96715 35.7938 7.9466 35.794 7.92543C35.7995 7.86685 35.8143 7.82324 35.8388 7.77006C35.8519 7.77006 35.8649 7.77006 35.8784 7.77006C35.8849 7.75043 35.8914 7.73081 35.8982 7.71059C35.9873 7.65731 36.0837 7.66588 36.1841 7.66708C36.2019 7.66713 36.2198 7.66719 36.2382 7.66725C36.295 7.66747 36.3518 7.66797 36.4086 7.66847C36.4472 7.66867 36.4858 7.66885 36.5245 7.66901C36.6189 7.66945 36.7134 7.67013 36.8078 7.67095C36.8075 7.64509 36.8075 7.64509 36.8072 7.6187C36.799 6.82955 36.8551 6.0784 37.4209 5.47075C37.4339 5.47075 37.447 5.47075 37.4604 5.47075C37.4604 5.45767 37.4604 5.44459 37.4604 5.43111C37.5488 5.35182 37.5488 5.35182 37.5989 5.35182C37.5989 5.33874 37.5989 5.32566 37.5989 5.31218C37.6432 5.28163 37.6872 5.25385 37.7336 5.2267C37.7471 5.21869 37.7606 5.21069 37.7746 5.20245C37.8842 5.13851 37.9953 5.08242 38.113 5.03467C38.1295 5.02783 38.1459 5.02098 38.1629 5.01392C38.5731 4.85342 39.0015 4.82932 39.4368 4.8302Z" fill="black"/>
<path d="M29.9306 4.97256C29.9555 4.97244 29.9555 4.97244 29.9809 4.97231C29.999 4.97232 30.017 4.97233 30.0356 4.97234C30.0643 4.97224 30.0643 4.97224 30.0936 4.97213C30.1569 4.97195 30.2202 4.97191 30.2835 4.97189C30.3275 4.97182 30.3715 4.97176 30.4155 4.97169C30.5077 4.97157 30.5999 4.97153 30.6921 4.97154C30.8103 4.97154 30.9285 4.97127 31.0467 4.97093C31.1375 4.97071 31.2284 4.97067 31.3192 4.97068C31.3628 4.97066 31.4064 4.97057 31.4499 4.97042C31.5109 4.97022 31.5718 4.97028 31.6327 4.9704C31.6507 4.97029 31.6687 4.97018 31.6873 4.97006C31.7967 4.97061 31.8769 4.9782 31.9654 5.04846C32.0118 5.10612 32.0319 5.16053 32.0566 5.23042C32.0615 5.24403 32.0663 5.25765 32.0714 5.27168C32.0821 5.30176 32.0928 5.33187 32.1034 5.36201C32.122 5.41459 32.141 5.46699 32.1602 5.51938C32.2614 5.79667 32.2614 5.79667 32.3076 5.92851C32.3157 5.95161 32.3238 5.97471 32.3322 5.99851C32.3388 6.01757 32.3454 6.03663 32.3522 6.05627C32.375 6.11699 32.3994 6.17652 32.4245 6.23629C32.476 6.35937 32.5226 6.4839 32.5683 6.60926C32.639 6.80205 32.7106 6.99451 32.7833 7.18656C32.7923 7.21038 32.8014 7.2342 32.8107 7.25874C32.8639 7.39906 32.9176 7.53918 32.9716 7.67919C33.0328 7.83768 33.0938 7.99599 33.1492 8.15658C33.2198 8.36131 33.2991 8.56275 33.3771 8.76475C33.4261 8.89172 33.4745 9.01887 33.523 9.14601C33.5392 9.18835 33.5554 9.23068 33.5715 9.27301C33.6767 9.54858 33.7798 9.82491 33.8821 10.1016C33.8907 10.1247 33.8992 10.1479 33.9081 10.1718C33.9513 10.2889 33.994 10.4062 34.0353 10.524C34.0712 10.6258 34.1119 10.7247 34.1541 10.824C34.1854 10.9016 34.2105 10.9808 34.2362 11.0604C34.257 11.1212 34.2809 11.1798 34.306 11.2388C34.3394 11.3173 34.3689 11.3955 34.395 11.4767C34.4205 11.5557 34.4489 11.632 34.4815 11.7084C34.5227 11.805 34.5585 11.9027 34.5928 12.002C34.6263 12.0991 34.6611 12.1948 34.7015 12.2894C34.7472 12.3964 34.7859 12.5051 34.824 12.615C34.9075 12.8549 34.9985 13.0918 35.0944 13.3269C35.1454 13.4525 35.1939 13.5784 35.2379 13.7066C35.3054 13.9027 35.3814 14.0956 35.4567 14.2889C35.4853 14.3623 35.5137 14.4358 35.542 14.5094C35.5501 14.5302 35.5582 14.551 35.5666 14.5725C35.6018 14.6652 35.6318 14.7457 35.6285 14.8464C35.6282 14.864 35.628 14.8815 35.6277 14.8996C35.6211 14.9455 35.6211 14.9455 35.5815 15.0049C35.5685 15.0049 35.5554 15.0049 35.542 15.0049C35.542 15.018 35.542 15.0311 35.542 15.0446C35.4677 15.0931 35.3937 15.0898 35.3081 15.0894C35.2849 15.0895 35.2849 15.0895 35.2611 15.0896C35.2099 15.0897 35.1587 15.0896 35.1075 15.0895C35.0719 15.0895 35.0363 15.0896 35.0007 15.0896C34.9261 15.0897 34.8515 15.0896 34.7769 15.0894C34.6813 15.0892 34.5857 15.0893 34.49 15.0895C34.4165 15.0897 34.343 15.0896 34.2695 15.0895C34.2342 15.0895 34.1989 15.0895 34.1637 15.0896C34.1144 15.0897 34.0651 15.0896 34.0158 15.0894C33.994 15.0895 33.994 15.0895 33.9717 15.0896C33.8987 15.089 33.844 15.0851 33.782 15.0446C33.782 15.0315 33.782 15.0184 33.782 15.0049C33.7689 15.0049 33.7559 15.0049 33.7424 15.0049C33.6711 14.8704 33.6187 14.7318 33.5669 14.5887C33.5494 14.5407 33.5318 14.4926 33.5142 14.4446C33.5058 14.4216 33.4975 14.3985 33.4888 14.3748C33.46 14.296 33.4308 14.2175 33.4013 14.139C33.3921 14.1145 33.3829 14.09 33.3735 14.0648C33.3647 14.0415 33.356 14.0181 33.3469 13.994C33.2735 13.7985 33.2007 13.6027 33.1282 13.4068C33.12 13.3849 33.1119 13.3629 33.1035 13.3403C33.045 13.182 32.9883 13.0232 32.9316 12.8642C31.5351 12.8577 30.1386 12.8511 28.6997 12.8444C28.6867 12.8902 28.6736 12.936 28.6602 12.9831C28.649 13.0173 28.6376 13.0513 28.6259 13.0853C28.6195 13.1037 28.6131 13.1222 28.6065 13.1413C28.5997 13.1606 28.593 13.18 28.586 13.1999C28.5789 13.2203 28.5718 13.2407 28.5645 13.2617C28.5065 13.4275 28.4459 13.5921 28.3833 13.7562C28.3474 13.8503 28.3115 13.9445 28.2758 14.0386C28.271 14.0511 28.2663 14.0636 28.2614 14.0765C28.2017 14.2336 28.1438 14.3913 28.0891 14.5503C27.9391 14.9853 27.9391 14.9853 27.8165 15.0663C27.7519 15.0913 27.6898 15.0901 27.6216 15.09C27.6067 15.0901 27.5918 15.0903 27.5765 15.0904C27.5274 15.0908 27.4784 15.0908 27.4293 15.0909C27.3951 15.091 27.3609 15.0912 27.3267 15.0913C27.2551 15.0915 27.1834 15.0916 27.1118 15.0916C27.0201 15.0916 26.9284 15.0921 26.8368 15.0928C26.7662 15.0932 26.6956 15.0933 26.6249 15.0933C26.5911 15.0933 26.5574 15.0935 26.5236 15.0938C26.4762 15.0942 26.4289 15.0941 26.3816 15.0939C26.3677 15.0941 26.3538 15.0943 26.3396 15.0945C26.223 15.0931 26.1565 15.0476 26.072 14.9715C26.0245 14.8735 26.0397 14.7824 26.0686 14.6816C26.106 14.5736 26.1481 14.469 26.1969 14.3657C26.2399 14.2739 26.2722 14.1809 26.3032 14.0845C26.3569 13.9177 26.4203 13.7559 26.4861 13.5936C26.5554 13.4224 26.6188 13.249 26.6814 13.0752C26.695 13.0375 26.7086 12.9998 26.7222 12.9621C26.7289 12.9433 26.7357 12.9245 26.7427 12.9052C26.7805 12.8007 26.8199 12.6971 26.8618 12.5941C26.9157 12.4615 26.9629 12.3269 27.0095 12.1915C27.0433 12.0936 27.0789 11.997 27.1184 11.9012C27.1515 11.818 27.1803 11.7334 27.2097 11.6489C27.2292 11.5953 27.2495 11.5426 27.2708 11.4897C27.3255 11.3535 27.3768 11.216 27.4284 11.0786C27.5185 10.839 27.6091 10.5995 27.701 10.3605C27.8313 10.0263 27.8313 10.0263 27.9495 9.6878C27.9746 9.61049 28.0029 9.53587 28.0348 9.46109C28.076 9.36443 28.1117 9.26676 28.146 9.16748C28.1859 9.05189 28.2295 8.93913 28.2776 8.82668C28.3069 8.75443 28.3326 8.68122 28.358 8.60752C28.4266 8.41046 28.5026 8.21652 28.579 8.02238C28.6478 7.84714 28.7144 7.67153 28.7762 7.49367C28.8206 7.3663 28.8684 7.24041 28.9172 7.11471C28.9345 7.06999 28.9517 7.02526 28.969 6.98053C28.9812 6.94884 28.9812 6.94884 28.9937 6.91652C29.0695 6.71959 29.142 6.5215 29.2139 6.32308C29.3091 6.06018 29.4062 5.79855 29.5111 5.53936C29.5434 5.45911 29.5748 5.37879 29.6035 5.29716C29.6087 5.28252 29.6139 5.26788 29.6193 5.25279C29.6289 5.22542 29.6383 5.19796 29.6474 5.17041C29.6676 5.11308 29.6798 5.08003 29.7314 5.04598C29.7434 5.04225 29.7553 5.03852 29.7676 5.03468C29.7676 5.0216 29.7676 5.00852 29.7676 4.99504C29.8233 4.97921 29.8728 4.9727 29.9306 4.97256ZM30.7959 7.17541C30.7094 7.39931 30.6248 7.62357 30.5474 7.8508C30.5144 7.94716 30.4784 8.04184 30.4403 8.13627C30.407 8.21904 30.3752 8.30239 30.3435 8.38577C30.3367 8.40379 30.3298 8.42181 30.3228 8.44037C30.2753 8.56587 30.2298 8.69194 30.1858 8.81869C30.1536 8.91112 30.1199 9.00287 30.0852 9.09439C30.033 9.23232 29.9841 9.37131 29.9364 9.51086C29.9026 9.60891 29.866 9.70536 29.8272 9.8015C29.7939 9.8842 29.7622 9.96747 29.7305 10.0508C29.7236 10.0688 29.7168 10.0868 29.7097 10.1054C29.6623 10.2308 29.6168 10.3567 29.5729 10.4834C29.5311 10.6034 29.4865 10.7222 29.4411 10.8409C29.4026 10.9463 29.3679 11.0531 29.3325 11.1596C30.3114 11.1596 31.2903 11.1596 32.2988 11.1596C32.2524 11.02 32.204 10.8823 32.153 10.7445C32.1445 10.7217 32.1361 10.6989 32.1274 10.6754C32.0774 10.5405 32.0266 10.4059 31.9751 10.2715C31.9694 10.2568 31.9638 10.242 31.958 10.2268C31.9303 10.1548 31.9026 10.0827 31.8747 10.0107C31.8146 9.85463 31.7588 9.69801 31.7078 9.53872C31.6876 9.48007 31.6645 9.42525 31.6376 9.36942C31.5943 9.27802 31.5622 9.18554 31.5313 9.08944C31.4776 8.92269 31.4142 8.76104 31.3484 8.59877C31.2932 8.46237 31.2422 8.32443 31.1914 8.18631C31.1799 8.15511 31.1683 8.12391 31.1568 8.0927C31.1036 7.94869 31.0509 7.80456 30.9998 7.6598C30.9663 7.56523 30.9308 7.47183 30.8931 7.37889C30.866 7.31154 30.8408 7.24351 30.8157 7.17541C30.8091 7.17541 30.8026 7.17541 30.7959 7.17541Z" fill="black"/>
<path d="M64.8761 7.95005C64.8998 7.96337 64.9238 7.97597 64.9481 7.98812C64.9481 8.0012 64.9481 8.01428 64.9481 8.02776C64.9622 8.03287 64.9764 8.03798 64.991 8.04325C65.0504 8.06887 65.0991 8.09967 65.152 8.13678C65.1695 8.14884 65.1869 8.1609 65.2049 8.17333C65.2246 8.18958 65.2246 8.18958 65.2447 8.20616C65.2447 8.21924 65.2447 8.23232 65.2447 8.2458C65.2578 8.2458 65.2708 8.2458 65.2843 8.2458C65.2843 8.25888 65.2843 8.27197 65.2843 8.28544C65.2952 8.28994 65.3061 8.29444 65.3173 8.29907C65.3769 8.33276 65.419 8.37559 65.4672 8.4242C65.4848 8.44178 65.5025 8.45935 65.5206 8.47747C65.5611 8.5233 65.5611 8.5233 65.5611 8.56295C65.5742 8.56295 65.5872 8.56295 65.6007 8.56295C65.6256 8.59035 65.6256 8.59035 65.6538 8.62915C65.6643 8.64352 65.6747 8.65788 65.6855 8.67269C65.6967 8.68839 65.7078 8.7041 65.7193 8.72028C65.7308 8.73636 65.7423 8.75243 65.7541 8.769C66.1004 9.26098 66.3143 9.80007 66.4349 10.3878C66.438 10.4025 66.4411 10.4172 66.4442 10.4323C66.5055 10.7453 66.5184 11.0557 66.5178 11.3739C66.5177 11.3944 66.5177 11.4148 66.5177 11.4359C66.5171 11.7667 66.4988 12.0837 66.4312 12.4083C66.4252 12.4376 66.4252 12.4376 66.4191 12.4676C66.3315 12.8823 66.1778 13.2561 65.9962 13.6373C65.9831 13.6373 65.9701 13.6373 65.9566 13.6373C65.9554 13.6505 65.9542 13.6637 65.953 13.6773C65.9304 13.7598 65.8858 13.8196 65.8367 13.8888C65.8221 13.9097 65.8221 13.9097 65.8072 13.931C65.6368 14.1727 65.6368 14.1727 65.5611 14.2517C65.5481 14.2517 65.535 14.2517 65.5216 14.2517C65.5148 14.2683 65.5148 14.2683 65.508 14.2852C65.4746 14.3441 65.4332 14.385 65.3831 14.4301C65.3701 14.4301 65.357 14.4301 65.3436 14.4301C65.3397 14.4411 65.3358 14.452 65.3318 14.4632C65.2925 14.5286 65.2365 14.5691 65.1767 14.6147C65.1642 14.6244 65.1516 14.634 65.1387 14.644C64.7882 14.9108 64.3729 15.1005 63.9395 15.1834C63.9225 15.1868 63.9054 15.1902 63.8878 15.1937C63.7062 15.2262 63.5275 15.2297 63.3436 15.2293C63.2922 15.2292 63.2409 15.2297 63.1896 15.2302C62.8566 15.2314 62.5531 15.1755 62.2389 15.0644C62.2019 15.0516 62.2019 15.0516 62.1642 15.0386C61.912 14.9447 61.6419 14.7987 61.4478 14.6085C61.4478 14.5955 61.4478 14.5824 61.4478 14.5689C61.4348 14.5689 61.4217 14.5689 61.4083 14.5689C61.4083 14.5558 61.4083 14.5427 61.4083 14.5293C61.3956 14.5239 61.383 14.5186 61.37 14.5131C61.3292 14.4896 61.3292 14.4896 61.3094 14.4301C61.2964 14.4301 61.2833 14.4301 61.2699 14.4301C61.2699 14.4171 61.2699 14.404 61.2699 14.3905C61.2568 14.3905 61.2438 14.3905 61.2303 14.3905C61.2303 14.4058 61.2302 14.4211 61.2302 14.4369C61.229 14.8093 61.2275 15.1817 61.2256 15.5541C61.2248 15.7341 61.224 15.9142 61.2235 16.0943C61.223 16.2513 61.2223 16.4083 61.2214 16.5653C61.221 16.6484 61.2206 16.7315 61.2205 16.8146C61.2203 16.8929 61.22 16.9711 61.2193 17.0494C61.2192 17.0781 61.2191 17.1068 61.2191 17.1354C61.2194 17.4455 61.2194 17.4455 61.1175 17.5603C61.0521 17.5913 60.9897 17.5899 60.9188 17.5892C60.9035 17.5892 60.8881 17.5893 60.8723 17.5894C60.8217 17.5895 60.771 17.5893 60.7204 17.589C60.6852 17.589 60.65 17.589 60.6148 17.589C60.541 17.589 60.4672 17.5888 60.3935 17.5884C60.2989 17.588 60.2043 17.588 60.1097 17.5881C60.037 17.5882 59.9643 17.588 59.8916 17.5879C59.8567 17.5878 59.8218 17.5878 59.7869 17.5878C59.7382 17.5878 59.6895 17.5875 59.6408 17.5872C59.6263 17.5873 59.6119 17.5873 59.597 17.5874C59.524 17.5866 59.4931 17.5838 59.4307 17.5421C59.4307 17.5291 59.4307 17.516 59.4307 17.5025C59.4177 17.5025 59.4046 17.5025 59.3912 17.5025C59.3487 17.4162 59.3461 17.3369 59.3467 17.2426C59.3466 17.2264 59.3466 17.2102 59.3465 17.1935C59.3463 17.1391 59.3465 17.0846 59.3466 17.0302C59.3466 16.9908 59.3465 16.9515 59.3464 16.9122C59.3463 16.8039 59.3464 16.6956 59.3465 16.5873C59.3466 16.4706 59.3464 16.3539 59.3463 16.2371C59.3461 16.0084 59.3462 15.7797 59.3463 15.551C59.3464 15.3652 59.3464 15.1793 59.3464 14.9935C59.3463 14.9803 59.3463 14.9671 59.3463 14.9535C59.3463 14.8999 59.3463 14.8464 59.3463 14.7928C59.3462 14.2901 59.3463 13.7875 59.3465 13.2848C59.3467 12.8381 59.3467 12.3914 59.3465 11.9447C59.3463 11.4429 59.3462 10.9412 59.3463 10.4395C59.3463 10.386 59.3463 10.3326 59.3464 10.2791C59.3464 10.2659 59.3464 10.2528 59.3464 10.2392C59.3464 10.0402 59.3464 9.84129 59.3463 9.64233C59.3461 9.41615 59.3462 9.18997 59.3464 8.96378C59.3465 8.84832 59.3465 8.73285 59.3464 8.61738C59.3463 8.51177 59.3463 8.40616 59.3466 8.30055C59.3466 8.26226 59.3466 8.22396 59.3465 8.18567C59.3464 8.13378 59.3465 8.0819 59.3467 8.03001C59.3466 8.015 59.3465 7.99999 59.3464 7.98453C59.347 7.90432 59.3556 7.8423 59.3912 7.77008C59.4042 7.77008 59.4173 7.77008 59.4307 7.77008C59.4307 7.757 59.4307 7.74392 59.4307 7.73044C59.5227 7.67687 59.5894 7.66348 59.6953 7.66328C59.7165 7.66312 59.7165 7.66312 59.738 7.66296C59.7843 7.6627 59.8306 7.66288 59.8769 7.66308C59.9093 7.66304 59.9416 7.66298 59.974 7.6629C60.0417 7.66282 60.1094 7.66294 60.1771 7.66322C60.2636 7.66356 60.3502 7.66337 60.4368 7.66301C60.5036 7.66279 60.5703 7.66286 60.6371 7.66302C60.669 7.66306 60.7009 7.66301 60.7328 7.66287C60.7775 7.66272 60.8222 7.66295 60.8669 7.66328C60.9049 7.66335 60.9049 7.66335 60.9438 7.66342C61.0358 7.67349 61.1036 7.70064 61.1673 7.76884C61.2109 7.84488 61.2137 7.91853 61.2168 8.00515C61.2176 8.02726 61.2184 8.04936 61.2193 8.07213C61.2201 8.0951 61.2209 8.11807 61.2217 8.14174C61.2225 8.16502 61.2234 8.18829 61.2242 8.21227C61.2263 8.2697 61.2284 8.32712 61.2303 8.38455C61.2463 8.36784 61.2623 8.35113 61.2787 8.33391C61.3001 8.31197 61.3214 8.29003 61.3428 8.2681C61.3533 8.25709 61.3638 8.24608 61.3746 8.23473C61.4345 8.17356 61.4823 8.1318 61.5665 8.10705C61.5665 8.09397 61.5665 8.08089 61.5665 8.06741C61.5991 8.05432 61.6317 8.04124 61.6654 8.02776C61.6654 8.01468 61.6654 8.0016 61.6654 7.98812C62.5852 7.32634 63.9295 7.41269 64.8761 7.95005ZM62.1424 9.29387C62.1287 9.30033 62.115 9.3068 62.1009 9.31346C62.0076 9.35863 61.9247 9.41024 61.8433 9.47474C61.8433 9.48782 61.8433 9.50091 61.8433 9.51438C61.8318 9.51949 61.8203 9.5246 61.8084 9.52987C61.7607 9.55598 61.7283 9.58477 61.6901 9.6234C61.678 9.63546 61.6658 9.64752 61.6533 9.65995C61.6216 9.69069 61.6216 9.69069 61.6258 9.73242C61.6128 9.73242 61.5997 9.73242 61.5863 9.73242C61.1121 10.3469 61.0835 11.2255 61.1712 11.968C61.1919 12.1181 61.227 12.2632 61.2699 12.4083C61.2765 12.4315 61.2832 12.4547 61.29 12.4786C61.4186 12.8816 61.7055 13.2436 62.0756 13.4494C62.5558 13.68 63.0488 13.6803 63.5467 13.5194C63.6222 13.4916 63.6912 13.458 63.7616 13.4192C63.7616 13.4062 63.7616 13.3931 63.7616 13.3796C63.7759 13.3745 63.7902 13.3695 63.805 13.3643C63.9591 13.2967 64.0998 13.1596 64.1966 13.0228C64.1966 13.0097 64.1966 12.9966 64.1966 12.9832C64.2097 12.9832 64.2227 12.9832 64.2362 12.9832C64.5324 12.4732 64.656 11.9831 64.6552 11.3937C64.6552 11.3801 64.6551 11.3665 64.6551 11.3526C64.6548 11.1531 64.6485 10.9596 64.6119 10.7631C64.6078 10.74 64.6037 10.7169 64.5995 10.6932C64.5319 10.3451 64.4065 10.038 64.1966 9.75224C64.177 9.72281 64.177 9.72281 64.1571 9.69278C64.144 9.69278 64.131 9.69278 64.1175 9.69278C64.1096 9.67499 64.1096 9.67499 64.1014 9.65685C64.078 9.61352 64.0563 9.58548 64.0186 9.55403C64.0056 9.55403 63.9925 9.55403 63.9791 9.55403C63.9791 9.54095 63.9791 9.52786 63.9791 9.51438C63.6696 9.25326 63.3274 9.15397 62.9298 9.15283C62.8895 9.15264 62.8491 9.15203 62.8088 9.1514C62.5701 9.14942 62.3567 9.18692 62.1424 9.29387Z" fill="black"/>
<path d="M70.546 7.53131C70.6444 7.52941 70.7427 7.53015 70.8412 7.53222C70.8628 7.53259 70.8628 7.53259 70.8849 7.53297C71.2729 7.54128 71.6608 7.60203 72.0277 7.73043C72.0402 7.73477 72.0527 7.73911 72.0656 7.74357C72.27 7.81622 72.4545 7.91737 72.6407 8.02776C72.6407 8.04084 72.6407 8.05392 72.6407 8.0674C72.6546 8.0719 72.6685 8.07639 72.6828 8.08103C72.7543 8.11375 72.8007 8.15245 72.8583 8.20615C72.8583 8.21923 72.8583 8.23231 72.8583 8.24579C72.8696 8.2506 72.881 8.2554 72.8927 8.26035C73.1914 8.42791 73.393 8.90522 73.482 9.22069C73.491 9.25575 73.4998 9.29088 73.5084 9.32607C73.5122 9.34154 73.516 9.35702 73.5198 9.37296C73.5839 9.6614 73.5958 9.95463 73.595 10.2489C73.5951 10.283 73.5951 10.3172 73.5952 10.3513C73.5954 10.424 73.5954 10.4967 73.5954 10.5693C73.5953 10.6844 73.5956 10.7995 73.596 10.9145C73.5969 11.2414 73.5974 11.5683 73.5975 11.8952C73.5976 12.0764 73.5979 12.2576 73.5986 12.4388C73.599 12.553 73.599 12.6673 73.5988 12.7816C73.5988 12.8526 73.599 12.9237 73.5994 12.9947C73.5995 13.0276 73.5995 13.0604 73.5993 13.0932C73.596 13.3367 73.596 13.3367 73.6888 13.558C73.7639 13.6332 73.851 13.6569 73.9546 13.6645C74.0421 13.6727 74.0949 13.6992 74.1635 13.7562C74.2081 13.8234 74.2082 13.8476 74.2091 13.9264C74.2094 13.9491 74.2097 13.9718 74.21 13.9951C74.2102 14.0319 74.2102 14.0319 74.2103 14.0695C74.2105 14.0947 74.2107 14.1199 74.2109 14.1458C74.2112 14.1992 74.2114 14.2525 74.2114 14.3059C74.2115 14.3741 74.2123 14.4423 74.2132 14.5106C74.2139 14.5758 74.2139 14.641 74.2141 14.7062C74.2144 14.7307 74.2148 14.7551 74.2152 14.7803C74.2143 14.9473 74.2143 14.9473 74.164 15.0273C74.0308 15.1098 73.9038 15.133 73.7491 15.1311C73.7328 15.1311 73.7166 15.1311 73.6998 15.1311C73.6657 15.1311 73.6315 15.1309 73.5973 15.1306C73.5459 15.1301 73.4944 15.1301 73.443 15.1303C73.0044 15.1295 72.5113 15.0545 72.1859 14.7275C72.1859 14.7144 72.1859 14.7013 72.1859 14.6878C72.1729 14.6878 72.1598 14.6878 72.1464 14.6878C72.1143 14.6465 72.1143 14.6465 72.0784 14.5924C72.0387 14.5329 72.0013 14.4787 71.9486 14.4301C71.9254 14.4547 71.9254 14.4547 71.9016 14.4797C71.8497 14.5292 71.8497 14.5292 71.8102 14.5292C71.8102 14.5423 71.8102 14.5554 71.8102 14.5689C71.7971 14.5689 71.7841 14.5689 71.7706 14.5689C71.7706 14.582 71.7706 14.5951 71.7706 14.6085C71.738 14.6216 71.7054 14.6347 71.6718 14.6482C71.6718 14.6613 71.6718 14.6743 71.6718 14.6878C71.3066 14.9762 70.7829 15.133 70.327 15.1834C70.2943 15.1872 70.2943 15.1872 70.261 15.1911C69.5333 15.2583 68.8465 15.1589 68.2111 14.7869C68.2111 14.7738 68.2111 14.7608 68.2111 14.7473C68.1968 14.7423 68.1826 14.7374 68.168 14.7323C67.7909 14.5658 67.5415 14.121 67.3979 13.7599C67.1956 13.2252 67.2452 12.5914 67.4696 12.0722C67.5237 11.9618 67.5849 11.8536 67.6574 11.7542C67.6704 11.7542 67.6835 11.7542 67.6969 11.7542C67.71 11.7215 67.723 11.6888 67.7365 11.6551C67.7495 11.6551 67.7626 11.6551 67.776 11.6551C67.776 11.642 67.776 11.6289 67.776 11.6155C67.7891 11.6155 67.8021 11.6155 67.8156 11.6155C67.8204 11.6039 67.8253 11.5924 67.8304 11.5805C67.8588 11.5296 67.8902 11.4998 67.9342 11.4618C67.9481 11.4497 67.9619 11.4375 67.9762 11.425C68.0133 11.3974 68.0133 11.3974 68.0529 11.3974C68.0529 11.3843 68.0529 11.3713 68.0529 11.3578C68.0999 11.322 68.1467 11.2894 68.1962 11.2574C68.2111 11.2478 68.2261 11.2381 68.2414 11.2282C68.4136 11.1199 68.597 11.0389 68.7845 10.9614C68.8082 10.9514 68.8082 10.9514 68.8323 10.9412C68.9563 10.8898 69.082 10.8497 69.211 10.8127C69.2318 10.8067 69.2527 10.8007 69.2742 10.7945C69.5383 10.7192 69.8009 10.6613 70.0717 10.6158C70.2035 10.5933 70.3338 10.567 70.4642 10.5377C70.6637 10.4928 70.8642 10.4545 71.0653 10.4173C71.2451 10.3841 71.4245 10.3496 71.6029 10.3096C71.6679 10.2952 71.7233 10.2874 71.7904 10.2874C71.7417 9.80415 71.7417 9.80415 71.4938 9.39545C71.4807 9.3889 71.4677 9.38236 71.4542 9.37562C71.4542 9.36254 71.4542 9.34946 71.4542 9.33598C71.4416 9.33148 71.4289 9.32699 71.4159 9.32235C71.3652 9.30055 71.3241 9.27695 71.2775 9.24802C71.0699 9.13224 70.8273 9.12729 70.5952 9.12909C70.5818 9.12915 70.5684 9.1292 70.5546 9.12926C70.2353 9.13119 69.945 9.18331 69.6942 9.39545C69.6812 9.39545 69.6681 9.39545 69.6547 9.39545C69.6547 9.40853 69.6547 9.42161 69.6547 9.43509C69.6416 9.43509 69.6286 9.43509 69.6151 9.43509C69.6151 9.44817 69.6151 9.46125 69.6151 9.47473C69.6021 9.47473 69.589 9.47473 69.5756 9.47473C69.5675 9.49194 69.5675 9.49194 69.5592 9.5095C69.5363 9.55349 69.5104 9.59172 69.4816 9.63207C69.4176 9.72616 69.3738 9.82542 69.3301 9.93032C69.2916 10.0037 69.2693 10.0423 69.1998 10.0892C69.0236 10.115 68.8517 10.0764 68.6807 10.0359C68.6323 10.025 68.5838 10.014 68.5353 10.0031C68.5111 9.99758 68.4868 9.99206 68.4618 9.98638C68.3283 9.95683 68.194 9.93116 68.0597 9.90561C67.7511 9.84539 67.7511 9.84539 67.6351 9.7733C67.5746 9.67427 67.5778 9.58745 67.598 9.47473C67.6347 9.36495 67.6851 9.26109 67.7365 9.15759C67.7495 9.15759 67.7626 9.15759 67.776 9.15759C67.778 9.14686 67.78 9.13612 67.7821 9.12507C67.7993 9.06629 67.8265 9.01774 67.8563 8.96433C67.8672 8.94481 67.878 8.92528 67.8892 8.90517C67.8975 8.89035 67.9058 8.87553 67.9144 8.86026C67.9275 8.86026 67.9405 8.86026 67.954 8.86026C67.967 8.82756 67.9801 8.79485 67.9935 8.76115C68.0066 8.76115 68.0196 8.76115 68.0331 8.76115C68.0376 8.74725 68.0421 8.73335 68.0467 8.71903C68.0793 8.64735 68.1179 8.60084 68.1715 8.54312C68.1846 8.54312 68.1976 8.54312 68.2111 8.54312C68.2111 8.53003 68.2111 8.51695 68.2111 8.50347C68.2241 8.50347 68.2372 8.50347 68.2506 8.50347C68.2559 8.49162 68.2612 8.47976 68.2667 8.46755C68.2901 8.42422 68.3118 8.39617 68.3495 8.36472C68.3625 8.36472 68.3756 8.36472 68.389 8.36472C68.389 8.35164 68.389 8.33856 68.389 8.32508C68.4774 8.24579 68.4774 8.24579 68.5275 8.24579C68.5275 8.23271 68.5275 8.21963 68.5275 8.20615C68.5701 8.17356 68.6124 8.14377 68.6572 8.11447C68.6773 8.10126 68.6773 8.10126 68.6978 8.08778C68.9255 7.94019 69.1623 7.82224 69.4174 7.73043C69.4417 7.72167 69.466 7.7129 69.4911 7.70387C69.8322 7.5868 70.1868 7.53928 70.546 7.53131ZM71.5932 11.6726C71.5645 11.6784 71.5645 11.6784 71.5352 11.6843C71.5146 11.6886 71.494 11.6928 71.4728 11.6972C71.4402 11.7039 71.4402 11.7039 71.407 11.7106C71.2212 11.7487 71.0357 11.7885 70.8504 11.8289C70.7168 11.8579 70.583 11.8851 70.4488 11.9107C70.0175 11.9936 69.5646 12.0864 69.2592 12.4282C69.2592 12.4412 69.2592 12.4543 69.2592 12.4678C69.2461 12.4678 69.2331 12.4678 69.2196 12.4678C69.105 12.6784 69.061 12.8965 69.1183 13.1344C69.189 13.3507 69.2987 13.5199 69.4965 13.6373C69.8655 13.8241 70.3845 13.8035 70.7706 13.6783C71.0162 13.5935 71.2786 13.4772 71.4542 13.2805C71.4542 13.2674 71.4542 13.2543 71.4542 13.2408C71.4673 13.2408 71.4803 13.2408 71.4938 13.2408C71.4938 13.2278 71.4938 13.2147 71.4938 13.2012C71.5068 13.2012 71.5199 13.2012 71.5333 13.2012C71.7333 12.946 71.7978 12.6488 71.7943 12.3307C71.7942 12.3112 71.7942 12.2917 71.7941 12.2716C71.7939 12.2102 71.7934 12.1488 71.7929 12.0875C71.7927 12.0455 71.7925 12.0035 71.7923 11.9615C71.7919 11.8594 71.7912 11.7572 71.7904 11.6551C71.7219 11.6534 71.6603 11.6589 71.5932 11.6726Z" fill="black"/>
<path d="M51.1449 8.02775C51.1449 8.04084 51.1449 8.05392 51.1449 8.0674C51.184 8.08048 51.2232 8.09356 51.2635 8.10704C51.2635 8.12012 51.2635 8.1332 51.2635 8.14668C51.2856 8.15466 51.2856 8.15466 51.308 8.16279C51.3602 8.18539 51.3991 8.20801 51.4415 8.24579C51.4415 8.25887 51.4415 8.27196 51.4415 8.28543C51.4546 8.28543 51.4676 8.28543 51.4811 8.28543C51.4811 8.29852 51.4811 8.3116 51.4811 8.32508C51.492 8.32957 51.5029 8.33407 51.5141 8.3387C51.5737 8.3724 51.6158 8.41523 51.664 8.46383C51.6816 8.48141 51.6993 8.49899 51.7174 8.5171C51.7579 8.56294 51.7579 8.56294 51.7579 8.60258C51.771 8.60258 51.784 8.60258 51.7975 8.60258C51.8298 8.6441 51.8596 8.68539 51.8889 8.72894C51.9014 8.74688 51.9014 8.74688 51.9141 8.76518C51.9754 8.855 51.9754 8.855 51.9754 8.8999C51.9885 8.8999 52.0015 8.8999 52.015 8.8999C52.4448 9.65662 52.6294 10.414 52.6367 11.2847C52.6369 11.3013 52.6372 11.3179 52.6374 11.335C52.638 11.3826 52.638 11.4301 52.6378 11.4777C52.6381 11.4919 52.6383 11.506 52.6385 11.5206C52.6371 11.6206 52.613 11.6782 52.5489 11.7542C52.4919 11.7894 52.4494 11.7988 52.3829 11.7987C52.3655 11.7988 52.3481 11.7989 52.3302 11.799C52.3112 11.7989 52.2922 11.7987 52.2726 11.7986C52.2422 11.7987 52.2422 11.7987 52.2112 11.7987C52.1432 11.7988 52.0751 11.7986 52.007 11.7984C51.9583 11.7983 51.9096 11.7984 51.8609 11.7984C51.7559 11.7984 51.6509 11.7983 51.5459 11.7981C51.3941 11.7977 51.2423 11.7976 51.0905 11.7976C50.8442 11.7975 50.5979 11.7972 50.3516 11.7968C50.1124 11.7965 49.8731 11.7962 49.6339 11.796C49.6191 11.796 49.6044 11.796 49.5892 11.796C49.5152 11.796 49.4412 11.7959 49.3672 11.7959C48.7535 11.7954 48.1397 11.7947 47.526 11.7939C47.5353 11.8512 47.5446 11.9086 47.554 11.9659C47.5579 11.9901 47.5579 11.9901 47.5619 12.0149C47.5798 12.1234 47.6015 12.2277 47.6384 12.3315C47.6433 12.3459 47.6482 12.3603 47.6533 12.3751C47.6964 12.4965 47.7513 12.6112 47.8119 12.7247C47.8622 12.8191 47.8622 12.8191 47.8622 12.884C47.8752 12.884 47.8883 12.884 47.9017 12.884C47.9289 12.9182 47.9547 12.9535 47.9796 12.9893C48.0327 13.0666 48.0327 13.0666 48.0946 13.1364C48.1192 13.1615 48.1192 13.1615 48.1192 13.2012C48.1305 13.2062 48.1417 13.2113 48.1533 13.2164C48.2038 13.2438 48.2425 13.2765 48.2861 13.3139C48.466 13.4598 48.6676 13.557 48.8905 13.6174C48.9023 13.6209 48.9142 13.6244 48.9264 13.6281C49.0741 13.6671 49.2245 13.665 49.3762 13.6645C49.3974 13.6645 49.3974 13.6645 49.419 13.6645C49.6288 13.6636 49.8198 13.6538 50.0177 13.5778C50.0377 13.5703 50.0377 13.5703 50.0581 13.5627C50.2285 13.4977 50.3756 13.4237 50.5121 13.3003C50.5284 13.2862 50.5447 13.2722 50.5616 13.2577C50.6468 13.189 50.6468 13.189 50.7098 13.1021C50.7229 13.1021 50.7359 13.1021 50.7494 13.1021C50.7547 13.0878 50.76 13.0734 50.7655 13.0586C50.7886 13.0036 50.8156 12.9558 50.847 12.9051C50.8813 12.8493 50.9113 12.7965 50.9385 12.7366C50.9746 12.6721 50.9965 12.6529 51.0658 12.6264C51.2304 12.6043 51.3608 12.6553 51.5107 12.718C51.5563 12.7364 51.6018 12.7547 51.6474 12.7729C51.6696 12.7818 51.6918 12.7908 51.7146 12.7999C51.7998 12.8332 51.8859 12.8623 51.973 12.8902C52.3937 13.0274 52.3937 13.0274 52.4896 13.1417C52.5201 13.2044 52.521 13.2517 52.5094 13.3201C52.4095 13.577 52.2443 13.8725 52.0545 14.0733C52.0415 14.0733 52.0284 14.0733 52.015 14.0733C52.0098 14.085 52.0045 14.0967 51.9992 14.1087C51.9746 14.1542 51.9487 14.1845 51.9124 14.2211C51.9002 14.2333 51.888 14.2456 51.8755 14.2582C51.8628 14.2708 51.8501 14.2834 51.837 14.2963C51.8243 14.3092 51.8116 14.3221 51.7985 14.3354C51.7864 14.3475 51.7742 14.3597 51.7616 14.3722C51.7505 14.3833 51.7393 14.3945 51.7279 14.4059C51.6986 14.4301 51.6986 14.4301 51.659 14.4301C51.659 14.4432 51.659 14.4563 51.659 14.4698C51.6301 14.4953 51.6301 14.4953 51.5923 14.5218C51.5799 14.5306 51.5675 14.5395 51.5547 14.5486C51.5206 14.5689 51.5206 14.5689 51.4811 14.5689C51.4811 14.582 51.4811 14.595 51.4811 14.6085C51.4419 14.6216 51.4027 14.6347 51.3624 14.6482C51.3624 14.6613 51.3624 14.6743 51.3624 14.6878C51.1304 14.8222 50.9043 14.9381 50.6505 15.0248C50.6241 15.0348 50.5978 15.045 50.5715 15.0551C50.1885 15.1998 49.7768 15.2344 49.3713 15.2317C49.3427 15.2316 49.3427 15.2316 49.3136 15.2315C49.0205 15.2303 48.7412 15.2142 48.4554 15.1437C48.4397 15.1401 48.424 15.1365 48.4079 15.1328C48.1692 15.0773 47.9456 14.9896 47.7237 14.886C47.7095 14.8794 47.6952 14.8728 47.6806 14.8659C47.3844 14.725 47.0825 14.5287 46.8536 14.2914C46.8536 14.2783 46.8536 14.2652 46.8536 14.2517C46.8406 14.2517 46.8275 14.2517 46.8141 14.2517C46.8141 14.2387 46.8141 14.2256 46.8141 14.2121C46.801 14.2121 46.788 14.2121 46.7745 14.2121C46.4341 13.879 46.1923 13.4477 46.0272 13.0058C46.0106 12.9627 45.9928 12.9201 45.9738 12.878C45.9391 12.7929 45.9157 12.7079 45.8933 12.6189C45.8892 12.6031 45.885 12.5872 45.8808 12.5709C45.8421 12.4208 45.8065 12.2708 45.7845 12.1172C45.7814 12.0963 45.7783 12.0753 45.7752 12.0538C45.6373 10.932 45.8538 9.76227 46.5515 8.85554C46.6167 8.77632 46.6852 8.7008 46.7554 8.62596C46.7949 8.58596 46.7949 8.58596 46.8141 8.54312C46.8271 8.54312 46.8402 8.54312 46.8536 8.54312C46.8536 8.53003 46.8536 8.51695 46.8536 8.50347C46.8871 8.47246 46.922 8.44295 46.9574 8.41427C46.9767 8.39854 46.996 8.3828 47.0158 8.36658C47.0602 8.33325 47.0997 8.30761 47.1502 8.28543C47.1502 8.27235 47.1502 8.25927 47.1502 8.24579C47.1829 8.23271 47.2155 8.21963 47.2491 8.20615C47.2491 8.19307 47.2491 8.17998 47.2491 8.1665C47.291 8.1376 47.3325 8.11153 47.3764 8.08598C47.3898 8.07814 47.4031 8.0703 47.4169 8.06222C47.4597 8.03728 47.5027 8.01267 47.5458 7.98811C47.5592 7.98034 47.5726 7.97257 47.5864 7.96456C48.6597 7.34744 50.0954 7.37983 51.1449 8.02775ZM48.0258 9.60287C47.9125 9.72236 47.9125 9.72236 47.8622 9.87116C47.8491 9.87116 47.8361 9.87116 47.8226 9.87116C47.7937 9.93471 47.7649 9.99832 47.7361 10.0619C47.7279 10.0799 47.7198 10.0978 47.7114 10.1162C47.6321 10.2844 47.6321 10.2844 47.6051 10.4658C48.6557 10.4658 49.7064 10.4658 50.7889 10.4658C50.7384 10.0357 50.6427 9.65452 50.2945 9.37562C50.2815 9.37562 50.2684 9.37562 50.255 9.37562C50.255 9.36254 50.255 9.34946 50.255 9.33598C50.1746 9.27264 50.1746 9.27264 50.077 9.25669C50.077 9.24361 50.077 9.23053 50.077 9.21705C49.3325 8.94245 48.5987 9.0168 48.0258 9.60287Z" fill="black"/>
<path d="M74.838 7.66776C74.8523 7.66766 74.8665 7.66756 74.8812 7.66746C74.9284 7.66717 74.9755 7.66704 75.0227 7.66693C75.0555 7.66681 75.0884 7.6667 75.1212 7.66658C75.1901 7.66638 75.259 7.66626 75.3279 7.66619C75.4159 7.66608 75.504 7.66561 75.592 7.66504C75.6599 7.66467 75.7278 7.66457 75.7956 7.66454C75.8281 7.66448 75.8605 7.66432 75.893 7.66406C75.9385 7.66372 75.984 7.66376 76.0296 7.66389C76.0683 7.66378 76.0683 7.66378 76.1079 7.66367C76.1926 7.67217 76.2438 7.69107 76.3189 7.73042C76.3883 7.82039 76.4176 7.92187 76.4521 8.02942C76.4948 8.16257 76.5422 8.29389 76.5896 8.42541C76.6712 8.65253 76.7487 8.88077 76.8234 9.11023C76.8679 9.2458 76.9159 9.37909 76.9677 9.512C77.0043 9.60798 77.0361 9.70537 77.0679 9.80301C77.1331 10.0011 77.2008 10.1982 77.27 10.3949C77.3094 10.5072 77.3482 10.6198 77.3872 10.7323C77.4182 10.8216 77.4492 10.9109 77.4806 11.0001C77.5567 11.2162 77.6299 11.4333 77.7011 11.6512C77.7433 11.7811 77.7433 11.7811 77.7939 11.908C77.8272 11.9846 77.853 12.0625 77.8787 12.142C77.9297 12.2978 77.9837 12.4523 78.0394 12.6065C78.131 12.3869 78.2074 12.1644 78.2791 11.9376C78.2993 11.874 78.3196 11.8106 78.3399 11.7471C78.3447 11.7318 78.3496 11.7166 78.3546 11.7009C78.3855 11.6048 78.4186 11.5098 78.4537 11.4152C78.4963 11.297 78.5346 11.1772 78.5739 11.0579C78.7147 10.6301 78.7147 10.6301 78.7884 10.4348C78.8358 10.309 78.8777 10.1825 78.9172 10.0539C78.9689 9.88738 79.0258 9.72262 79.0825 9.55772C79.1582 9.33757 79.2331 9.11722 79.3062 8.89618C79.3719 8.69796 79.4382 8.50002 79.5058 8.30245C79.5151 8.27505 79.5245 8.24765 79.5338 8.22024C79.6925 7.75393 79.6925 7.75393 79.7994 7.69077C79.8688 7.66756 79.9242 7.66801 79.9976 7.66744C80.0116 7.66731 80.0257 7.66718 80.0402 7.66705C80.0867 7.66666 80.1332 7.66643 80.1797 7.66623C80.1957 7.66615 80.2116 7.66607 80.228 7.66599C80.3122 7.66557 80.3965 7.66529 80.4808 7.6651C80.5677 7.66488 80.6545 7.6642 80.7414 7.66341C80.8083 7.6629 80.8753 7.66273 80.9422 7.66266C80.9742 7.66256 81.0062 7.66233 81.0382 7.66196C81.0832 7.66148 81.1281 7.6615 81.173 7.66164C81.1985 7.66152 81.224 7.66141 81.2503 7.66129C81.3403 7.67341 81.3858 7.69897 81.4605 7.75024C81.5209 7.84109 81.5145 7.92123 81.5001 8.02774C81.4714 8.11639 81.4353 8.20106 81.398 8.28629C81.3714 8.34841 81.348 8.41161 81.3246 8.47497C81.3172 8.49456 81.3172 8.49456 81.3098 8.51454C81.2822 8.58873 81.2552 8.6631 81.2285 8.7376C81.1448 8.97049 81.0574 9.2016 80.9677 9.43219C80.9062 9.5903 80.8461 9.74858 80.7912 9.90912C80.7444 10.0447 80.6915 10.1779 80.6383 10.3111C80.5941 10.4224 80.553 10.5345 80.5136 10.6476C80.4592 10.8036 80.4015 10.9581 80.3422 11.1123C80.3254 11.156 80.3086 11.1997 80.2919 11.2434C80.2596 11.3278 80.2273 11.4122 80.1949 11.4965C80.1144 11.7064 80.0345 11.9162 79.9606 12.1286C79.8983 12.3073 79.8326 12.4848 79.7618 12.6603C79.7159 12.7749 79.6736 12.8907 79.6313 13.0067C79.5755 13.1587 79.519 13.3104 79.4603 13.4614C79.4551 13.4749 79.4499 13.4883 79.4445 13.5022C79.4192 13.5673 79.3938 13.6323 79.3683 13.6973C79.3102 13.8461 79.2571 13.9956 79.2079 14.1475C79.1839 14.2194 79.1564 14.2891 79.1276 14.3591C79.0946 14.4421 79.066 14.5265 79.0369 14.6108C79.014 14.6745 78.9882 14.7367 78.9619 14.799C78.9078 14.9283 78.8588 15.0592 78.8106 15.1908C78.8019 15.2143 78.7933 15.2378 78.7844 15.262C78.7407 15.3808 78.6978 15.4999 78.6561 15.6194C78.6222 15.7154 78.5834 15.8074 78.5402 15.8995C78.4986 15.9898 78.4604 16.0815 78.4217 16.1731C78.401 16.2207 78.3796 16.2671 78.3558 16.3132C78.3427 16.3132 78.3297 16.3132 78.3162 16.3132C78.3141 16.3243 78.312 16.3354 78.3098 16.3468C78.2837 16.4361 78.2268 16.5123 78.1778 16.5907C78.1699 16.6037 78.1619 16.6166 78.1538 16.63C78.1366 16.6573 78.1178 16.6836 78.0987 16.7096C78.0856 16.7096 78.0726 16.7096 78.0591 16.7096C78.0538 16.7243 78.0485 16.739 78.0431 16.7542C78.0205 16.8065 77.998 16.8455 77.9603 16.888C77.9472 16.888 77.9342 16.888 77.9207 16.888C77.9207 16.9011 77.9207 16.9142 77.9207 16.9276C77.9077 16.9276 77.8946 16.9276 77.8812 16.9276C77.8812 16.9407 77.8812 16.9538 77.8812 16.9673C77.8681 16.9673 77.8551 16.9673 77.8416 16.9673C77.8351 16.9869 77.8286 17.0065 77.8218 17.0268C77.8088 17.0268 77.7957 17.0268 77.7823 17.0268C77.7823 17.0398 77.7823 17.0529 77.7823 17.0664C77.7402 17.1024 77.6983 17.1354 77.6537 17.168C77.6338 17.1826 77.6338 17.1826 77.6134 17.1975C77.4735 17.297 77.3259 17.3735 77.1692 17.443C77.1369 17.4573 77.1369 17.4573 77.104 17.472C76.8004 17.597 76.4905 17.6439 76.1642 17.6452C76.1423 17.6454 76.1205 17.6455 76.098 17.6456C76.052 17.6458 76.0061 17.6459 75.9602 17.646C75.89 17.6462 75.8199 17.6468 75.7497 17.6474C75.7049 17.6475 75.6602 17.6476 75.6154 17.6477C75.5841 17.6481 75.5841 17.6481 75.5521 17.6485C75.4442 17.6481 75.3624 17.6459 75.2708 17.5818C75.2086 17.516 75.2039 17.4679 75.2032 17.3786C75.2029 17.3535 75.2025 17.3284 75.2022 17.3026C75.2022 17.2753 75.2022 17.248 75.2022 17.2207C75.2021 17.1926 75.2019 17.1645 75.2018 17.1364C75.2015 17.0776 75.2015 17.0188 75.2016 16.9599C75.2017 16.8847 75.2011 16.8094 75.2003 16.7341C75.1998 16.6761 75.1997 16.6181 75.1998 16.5601C75.1998 16.5324 75.1996 16.5046 75.1992 16.4769C75.1988 16.438 75.199 16.3992 75.1993 16.3603C75.1993 16.3383 75.1992 16.3162 75.1992 16.2934C75.2154 16.215 75.25 16.1854 75.3104 16.1348C75.3583 16.1107 75.3872 16.1133 75.4408 16.1144C75.4593 16.1147 75.4779 16.115 75.497 16.1153C75.517 16.1156 75.537 16.1159 75.5576 16.1162C75.9118 16.1183 76.2626 16.1162 76.5364 15.8573C76.5657 15.8189 76.5901 15.7795 76.6155 15.7383C76.6286 15.7383 76.6416 15.7383 76.6551 15.7383C76.6567 15.7281 76.6583 15.7179 76.66 15.7074C76.6749 15.6591 76.6749 15.6591 76.7118 15.596C76.7536 15.5239 76.7832 15.449 76.8108 15.3704C76.8582 15.2398 76.9101 15.1122 76.9656 14.9849C76.9741 14.9653 76.9825 14.9458 76.9913 14.9257C76.9993 14.9092 77.0074 14.8927 77.0157 14.8757C77.0498 14.7651 76.9947 14.6533 76.9567 14.549C76.9514 14.5343 76.9461 14.5196 76.9406 14.5044C76.9298 14.4742 76.9189 14.444 76.908 14.4139C76.8938 14.3745 76.8798 14.3349 76.8661 14.2953C76.8296 14.1912 76.7922 14.0881 76.749 13.9866C76.6721 13.8053 76.6058 13.6197 76.5373 13.4351C76.5112 13.3649 76.4849 13.2948 76.4586 13.2247C76.2313 12.617 76.2313 12.617 76.1446 12.3699C76.1171 12.2918 76.0875 12.2153 76.0551 12.1391C76.0026 12.0137 75.9552 11.8868 75.9086 11.7592C75.8913 11.7121 75.874 11.6651 75.8567 11.618C75.8481 11.5945 75.8395 11.5709 75.8306 11.5467C75.7907 11.4385 75.7501 11.3306 75.7096 11.2227C75.6627 11.098 75.6165 10.9731 75.5724 10.8474C75.5439 10.7664 75.5133 10.6872 75.4797 10.6083C75.4415 10.5181 75.4078 10.427 75.3759 10.3345C75.3161 10.1612 75.2502 9.99055 75.1841 9.81965C75.1319 9.68426 75.0816 9.54853 75.0337 9.41154C75.0093 9.34336 74.9822 9.27649 74.9549 9.20945C74.9306 9.14724 74.9085 9.08436 74.8864 9.0213C74.8552 8.93247 74.822 8.8453 74.7851 8.75866C74.744 8.66188 74.7105 8.5641 74.6782 8.46405C74.657 8.40201 74.6327 8.34208 74.6071 8.28171C74.4835 7.98884 74.4835 7.98884 74.4996 7.84935C74.5327 7.77625 74.5702 7.73324 74.638 7.69077C74.708 7.66737 74.7641 7.66815 74.838 7.66776Z" fill="black"/>
<path d="M57.7299 7.62638C57.759 7.6261 57.759 7.6261 57.7886 7.62582C58.0326 7.62687 58.0326 7.62687 58.1204 7.69947C58.192 7.79857 58.2071 7.84243 58.2077 7.96499C58.2078 7.97892 58.2079 7.99284 58.208 8.00719C58.2083 8.05338 58.2085 8.09957 58.2086 8.14576C58.2087 8.17786 58.2088 8.20996 58.2089 8.24206C58.2091 8.30945 58.2092 8.37683 58.2093 8.44422C58.2094 8.53042 58.2099 8.61662 58.2105 8.70282C58.2108 8.76918 58.2109 8.83553 58.211 8.90188C58.211 8.93365 58.2112 8.96542 58.2114 8.99719C58.2118 9.04174 58.2117 9.08627 58.2116 9.13082C58.2117 9.16881 58.2117 9.16881 58.2118 9.20756C58.2038 9.28368 58.1855 9.33076 58.1452 9.39545C58.0456 9.4688 57.98 9.48432 57.8546 9.48109C57.8404 9.48088 57.8262 9.48068 57.8116 9.48046C57.7667 9.47976 57.7217 9.47853 57.6768 9.47722C57.246 9.46652 56.8348 9.53168 56.4649 9.76866C56.4248 9.79189 56.4248 9.79189 56.3852 9.79189C56.3852 9.80497 56.3852 9.81805 56.3852 9.83153C56.3555 9.86018 56.3555 9.86018 56.3148 9.89347C56.2232 9.97139 56.1233 10.0594 56.0688 10.1685C56.0558 10.1685 56.0427 10.1685 56.0293 10.1685C56.0218 10.188 56.0218 10.188 56.0143 10.2078C55.9953 10.2539 55.9754 10.2985 55.954 10.3435C55.9474 10.3577 55.9407 10.372 55.9339 10.3867C55.9204 10.4155 55.9067 10.4442 55.8928 10.4728C55.761 10.759 55.7408 11.0501 55.7426 11.3601C55.7425 11.3989 55.7424 11.4376 55.7422 11.4764C55.742 11.5591 55.742 11.6418 55.7422 11.7245C55.7425 11.8552 55.7422 11.986 55.7419 12.1168C55.7413 12.3705 55.7412 12.6241 55.7413 12.8778C55.7413 13.2015 55.7411 13.5253 55.7403 13.849C55.74 13.9791 55.74 14.1091 55.7403 14.2391C55.7404 14.3198 55.7402 14.4004 55.74 14.4811C55.74 14.5185 55.74 14.556 55.7402 14.5934C55.7404 14.6444 55.7402 14.6954 55.74 14.7465C55.7401 14.7613 55.7403 14.7761 55.7404 14.7914C55.7396 14.8795 55.7271 14.9348 55.6733 15.005C55.5859 15.0787 55.5159 15.0957 55.4045 15.0939C55.3899 15.094 55.3754 15.094 55.3604 15.0941C55.3126 15.0943 55.2649 15.0938 55.2171 15.0934C55.1837 15.0933 55.1504 15.0933 55.1171 15.0933C55.0474 15.0933 54.9776 15.0929 54.9079 15.0924C54.8186 15.0917 54.7293 15.0916 54.6399 15.0916C54.5712 15.0916 54.5024 15.0914 54.4336 15.0911C54.4007 15.091 54.3677 15.0909 54.3348 15.0909C54.2888 15.0908 54.2428 15.0904 54.1968 15.09C54.1832 15.09 54.1696 15.09 54.1556 15.0901C54.0848 15.0891 54.033 15.0832 53.9726 15.0446C53.9726 15.0315 53.9726 15.0184 53.9726 15.005C53.9596 15.005 53.9465 15.005 53.9331 15.005C53.887 14.9358 53.8885 14.9088 53.8884 14.827C53.8883 14.8021 53.8882 14.7772 53.888 14.7515C53.8881 14.7237 53.8882 14.6959 53.8882 14.6681C53.8882 14.6387 53.8881 14.6093 53.888 14.5799C53.8877 14.4988 53.8877 14.4178 53.8878 14.3368C53.8878 14.2495 53.8876 14.1621 53.8874 14.0748C53.887 13.9037 53.8869 13.7326 53.8869 13.5614C53.8869 13.4223 53.8868 13.2833 53.8867 13.1442C53.8863 12.7502 53.8862 12.3562 53.8862 11.9621C53.8862 11.9409 53.8862 11.9196 53.8862 11.8977C53.8862 11.8764 53.8862 11.8552 53.8862 11.8332C53.8862 11.4883 53.8858 11.1433 53.8853 10.7983C53.8847 10.4443 53.8844 10.0904 53.8845 9.73639C53.8845 9.53756 53.8844 9.33873 53.884 9.1399C53.8836 8.97063 53.8835 8.80136 53.8838 8.63208C53.8839 8.54568 53.8839 8.45928 53.8836 8.37287C53.8833 8.29381 53.8833 8.21476 53.8837 8.1357C53.8837 8.10706 53.8836 8.07842 53.8834 8.04979C53.8831 8.01092 53.8834 7.97206 53.8837 7.9332C53.8837 7.91159 53.8837 7.88998 53.8837 7.86772C53.8959 7.79564 53.9225 7.76276 53.9726 7.71062C54.0522 7.66564 54.125 7.66585 54.2152 7.66553C54.2293 7.66543 54.2434 7.66533 54.2579 7.66522C54.3043 7.66495 54.3507 7.66497 54.3971 7.66501C54.4295 7.66494 54.4619 7.66485 54.4943 7.66475C54.5621 7.66461 54.6299 7.66461 54.6977 7.66472C54.7844 7.66483 54.8711 7.6645 54.9579 7.66404C55.0247 7.66374 55.0916 7.66373 55.1584 7.66379C55.1904 7.66378 55.2224 7.66368 55.2543 7.66348C55.2991 7.66323 55.3439 7.66337 55.3886 7.66359C55.4141 7.66358 55.4395 7.66357 55.4657 7.66356C55.5677 7.67449 55.6315 7.70578 55.6997 7.78205C55.7423 7.86907 55.7445 7.9388 55.7447 8.03442C55.745 8.05185 55.7453 8.06928 55.7457 8.08724C55.7466 8.14257 55.7471 8.19789 55.7475 8.25323C55.748 8.29089 55.7486 8.32855 55.7492 8.3662C55.7507 8.45821 55.7517 8.55021 55.7524 8.64223C55.7619 8.62649 55.7715 8.61075 55.7813 8.59454C55.8 8.56418 55.8 8.56418 55.8192 8.53321C55.8315 8.51298 55.8439 8.49274 55.8567 8.47189C55.8736 8.44828 55.8736 8.44828 55.8908 8.4242C55.9039 8.4242 55.9169 8.4242 55.9304 8.4242C55.9353 8.41316 55.9402 8.40212 55.9452 8.39075C56.0007 8.28792 56.0761 8.21657 56.1677 8.14669C56.1807 8.14669 56.1938 8.14669 56.2072 8.14669C56.2072 8.13361 56.2072 8.12053 56.2072 8.10705C56.2479 8.07694 56.2881 8.04962 56.3308 8.02281C56.3434 8.01484 56.3561 8.00688 56.369 7.99867C56.6236 7.84009 56.899 7.72124 57.196 7.67097C57.2161 7.66732 57.2361 7.66367 57.2567 7.6599C57.4149 7.63464 57.5699 7.62721 57.7299 7.62638Z" fill="black"/>
</g>
<defs>
<clipPath id="clip0_26011_17193">
<rect width="81" height="20" fill="white" transform="translate(0.5)"/>
</clipPath>
</defs>
</svg>
