<svg width="66" height="18" viewBox="0 0 66 18" fill="none" xmlns="http://www.w3.org/2000/svg">
<path fill-rule="evenodd" clip-rule="evenodd" d="M4.0387 16.7275H0.5V0.975311H4.0387V16.7275ZM12.8771 0.975311H9.4141C9.4141 3.87412 8.10904 6.53482 5.83387 8.27545L4.46188 9.32478L9.77779 16.7281H14.1486L9.25718 9.91584C11.5759 7.55789 12.8771 4.38551 12.8771 0.975311ZM18.5221 16.7231H15.1802V0.978375H18.5221V16.7231ZM28.6229 5.83185V6.52854C27.721 5.90014 26.6322 5.53085 25.458 5.53085C22.3501 5.53085 19.8309 8.10372 19.8309 11.2777C19.8309 14.4517 22.3501 17.0247 25.458 17.0247C26.6322 17.0247 27.721 16.6554 28.6229 16.0271V16.7231H31.8159V5.83185H28.6229ZM28.6123 11.2777C28.6123 12.8253 27.3169 14.0801 25.7192 14.0801C24.1214 14.0801 22.826 12.8253 22.826 11.2777C22.826 9.7301 24.1214 8.47577 25.7192 8.47577C27.3169 8.47577 28.6123 9.7301 28.6123 11.2777ZM62.3071 6.52854V5.83185H65.5V16.7231H62.3071V16.0271C61.4052 16.6554 60.3164 17.0247 59.142 17.0247C56.0342 17.0247 53.515 14.4517 53.515 11.2777C53.515 8.10372 56.0342 5.53085 59.142 5.53085C60.3164 5.53085 61.4052 5.90014 62.3071 6.52854ZM59.4034 14.0801C61.0013 14.0801 62.2964 12.8253 62.2964 11.2777C62.2964 9.7301 61.0013 8.47577 59.4034 8.47577C57.8055 8.47577 56.5102 9.7301 56.5102 11.2777C56.5102 12.8253 57.8055 14.0801 59.4034 14.0801ZM47.8413 5.53888C46.5659 5.53888 45.359 5.94333 44.5519 7.05905V5.83244H41.3728V16.7231H44.5909V10.9998C44.5909 9.34346 45.6784 8.53253 46.9877 8.53253C48.391 8.53253 49.1977 9.38854 49.1977 10.9771V16.7231H52.3868V9.79707C52.3868 7.26259 50.4136 5.53888 47.8413 5.53888ZM36.7552 5.832V7.25047C37.3952 6.39956 38.5877 5.83258 39.8844 5.83258V9.0019L39.8742 9.00146L39.8665 9.00117L39.8583 9.00073L39.8465 9.00044C38.5832 9.00044 36.7625 9.92255 36.7625 11.6382V16.7231H33.4862V5.832H36.7552Z" fill="#17120F"/>
</svg>
